<!--?xml version="1.0" encoding="utf-8"?-->
<!-- Generator: Adobe Illustrator 18.0.0, SVG Export Plug-In . SVG Version: 6.00 Build 0)  -->

<svg version="1.1" id="_x32_" xmlns="http://www.w3.org/2000/svg" xmlns:xlink="http://www.w3.org/1999/xlink" x="0px" y="0px" viewBox="0 0 512 512" style="width: 32px; height: 32px; opacity: 1;" xml:space="preserve">
<style type="text/css">
	.st0{fill:#4B4B4B;}
</style>
<g>
	<path class="st0" d="M256,0C114.84,0,0,114.844,0,256c0,141.164,114.84,256,256,256s256-114.836,256-256
		C512,114.844,397.16,0,256,0z M256,451.051c-107.547,0-195.047-87.496-195.047-195.051c0-107.547,87.5-195.047,195.047-195.047
		S451.047,148.453,451.047,256C451.047,363.555,363.547,451.051,256,451.051z" style="fill: rgb(255, 255, 255);"></path>
	<path class="st0" d="M247.721,113.117c9.494-0.973,6.934-0.992,16.303-0.059l3.012-30.328c-11.398-1.129-10.707-1.129-22.602,0.086
		L245.726,98L247.721,113.117z" style="fill: rgb(255, 255, 255);"></path>
	<path class="st0" d="M263.75,398.891c-9.494,0.976-6.934,0.988-16.305,0.058l-3.012,30.328c11.4,1.129,10.709,1.129,22.602-0.09
		L265.744,414L263.75,398.891z" style="fill: rgb(255, 255, 255);"></path>
	<path class="st0" d="M429.186,244.703L414,245.996l-15.113,1.996c0.972,9.492,0.99,6.934,0.058,16.301l30.328,3.012
		C430.402,255.906,430.402,256.598,429.186,244.703z" style="fill: rgb(255, 255, 255);"></path>
	<path class="st0" d="M113.055,247.715l-30.328-3.012c-1.129,11.398-1.129,10.711,0.088,22.602L98,266.016l15.113-1.996
		C112.141,254.527,112.123,257.086,113.055,247.715z" style="fill: rgb(255, 255, 255);"></path>
	
		<rect x="171.601" y="192.438" transform="matrix(0.7072 -0.707 0.707 0.7072 -112.2305 206.5906)" class="st0" width="43.386" height="92.697" style="fill: rgb(255, 255, 255);"></rect>
	
		<rect x="207.486" y="220.05" transform="matrix(0.7071 -0.7071 0.7071 0.7071 -79.4373 291.7113)" class="st0" width="209.838" height="43.388" style="fill: rgb(255, 255, 255);"></rect>
</g>
</svg>
